<svg width="64" height="39" viewBox="0 0 64 39" fill="none" xmlns="http://www.w3.org/2000/svg">
<path d="M26.0709 17.628C27.3859 16.9767 28.3801 16.2513 29.0614 15.4674C30.2734 14.0556 30.8715 12.1836 30.8715 9.86309C30.8715 7.60499 30.2734 5.67449 29.0772 4.056C27.0809 1.4196 23.7022 0.0701999 18.9253 0H0V38.0367H17.646C19.6343 38.0367 21.4762 37.8689 23.1794 37.5257C24.8826 37.1786 26.356 36.543 27.6037 35.6148C28.7128 34.8075 29.6397 33.8052 30.3764 32.6235C31.5409 30.8373 32.1232 28.8132 32.1232 26.559C32.1232 24.375 31.6122 22.5147 30.5982 20.9859C29.5723 19.4571 28.0672 18.3378 26.0709 17.628ZM7.807 6.60659H16.3309C18.2044 6.60659 19.7492 6.80549 20.9613 7.19939C22.3634 7.77269 23.0645 8.93879 23.0645 10.7172C23.0645 12.3123 22.5298 13.4277 21.4722 14.0556C20.4067 14.6835 19.0244 14.9994 17.3291 14.9994H7.807V6.60659ZM21.2861 30.7671C20.3433 31.2156 19.0164 31.4379 17.3172 31.4379H7.807V21.294H17.4479C19.1273 21.3057 20.4345 21.5241 21.3692 21.9336C23.0328 22.6746 23.8607 24.0318 23.8607 26.0169C23.8607 28.3569 23.0051 29.9325 21.2861 30.7671Z" fill="#565656"/>
<path d="M57.2797 1.77441H40.4972V6.50901H57.2797V1.77441Z" fill="#565656"/>
<path d="M63.1092 20.4595C62.7606 18.256 61.9922 16.3177 60.796 14.6446C59.4849 12.7492 57.8213 11.3608 55.7973 10.4833C53.7812 9.60186 51.5116 9.16116 48.9845 9.16506C44.7423 9.16506 41.2963 10.4716 38.6306 13.0651C35.9728 15.6664 34.642 19.4065 34.642 24.2814C34.642 29.4801 36.1115 33.2358 39.0663 35.5407C42.0093 37.8495 45.4078 39 49.2657 39C53.9357 39 57.5678 37.6311 60.1623 34.9011C61.8219 33.1773 62.7606 31.4808 62.9666 29.8155H55.2349C54.7873 30.6384 54.2684 31.2819 53.6742 31.7499C52.5969 32.6079 51.1947 33.0369 49.4757 33.0369C47.8398 33.0369 46.4535 32.682 45.2969 31.9761C43.3877 30.8451 42.3896 28.8639 42.2628 26.0442H63.3627C63.3944 23.6145 63.3152 21.7465 63.1092 20.4595ZM42.4529 21.1887C42.7302 19.3597 43.4035 17.9089 44.473 16.8364C45.5425 15.7678 47.0555 15.2296 48.9924 15.2257C50.7788 15.2257 52.2721 15.7288 53.4881 16.7389C54.6882 17.7568 55.3656 19.2349 55.5042 21.1887H42.4529Z" fill="#565656"/>
</svg>
