<svg width="386" height="330" viewBox="0 0 386 330" fill="none" xmlns="http://www.w3.org/2000/svg">
<g filter="url(#filter1_f_2320_5474)">
<g style="mix-blend-mode:plus-lighter" filter="url(#filter2_f_2320_5474)">
<ellipse cx="216.041" cy="184.01" rx="230.777" ry="139.08" transform="rotate(129.723 216.041 184.01)" fill="url(#paint0_radial_2320_5474)" fill-opacity="0.2"/>
</g>
<g clip-path="url(#clip0_2320_5474)">
<g style="mix-blend-mode:plus-lighter" opacity="0.5" filter="url(#filter3_f_2320_5474)">
<path d="M547.347 418.184L517.389 454.239L139.244 225.124L252.84 88.4066L547.347 418.184Z" fill="url(#paint1_linear_2320_5474)"/>
</g>
<g style="mix-blend-mode:plus-lighter" filter="url(#filter4_f_2320_5474)">
<path d="M547.348 418.183L517.39 454.238L181.061 174.796L211.02 138.739L547.348 418.183Z" fill="url(#paint2_linear_2320_5474)"/>
</g>
<g style="mix-blend-mode:plus-lighter" filter="url(#filter5_f_2320_5474)">
<path d="M547.35 418.181L517.392 454.236L97.4252 275.454L294.659 38.0763L547.35 418.181Z" fill="url(#paint3_linear_2320_5474)"/>
</g>
<g style="mix-blend-mode:plus-lighter" filter="url(#filter6_f_2320_5474)">
<path d="M438.096 450.93L218.969 261.314" stroke="url(#paint4_linear_2320_5474)" stroke-width="0.978482"/>
</g>
<g style="mix-blend-mode:plus-lighter" opacity="0.3" filter="url(#filter7_f_2320_5474)">
<path d="M573.985 372.399L391.551 220.817" stroke="url(#paint5_linear_2320_5474)" stroke-width="0.978482"/>
</g>
<mask id="mask0_2320_5474" style="mask-type:alpha" maskUnits="userSpaceOnUse" x="145" y="93" width="429" height="400">
<rect x="573.516" y="352.36" width="181.587" height="405.328" transform="rotate(129.723 573.516 352.36)" fill="url(#paint6_linear_2320_5474)"/>
</mask>
<g mask="url(#mask0_2320_5474)">
<g style="mix-blend-mode:plus-lighter" opacity="0.87" filter="url(#filter8_i_2320_5474)">
<path d="M501.668 461.66C500.793 196.557 216.305 380.855 212.59 194.447" stroke="white" stroke-opacity="0.01" stroke-width="6.85596"/>
</g>
<g style="mix-blend-mode:plus-lighter" opacity="0.2" filter="url(#filter9_i_2320_5474)">
<path d="M551.761 401.372C290.982 449.071 399.082 177.655 215.147 208.147" stroke="url(#paint7_linear_2320_5474)" stroke-width="6.85596"/>
</g>
<g style="mix-blend-mode:plus-lighter" opacity="0.67" filter="url(#filter10_f_2320_5474)">
<path d="M551.76 401.373C290.981 449.073 420.051 135.64 236.116 166.132" stroke="white" stroke-width="0.685596"/>
</g>
<g style="mix-blend-mode:plus-lighter" opacity="0.6" filter="url(#filter11_f_2320_5474)">
<path d="M501.668 461.66C500.793 196.557 253.77 352.543 250.054 166.135" stroke="white" stroke-width="0.685596"/>
</g>
<g style="mix-blend-mode:plus-lighter" opacity="0.46" filter="url(#filter12_f_2320_5474)">
<path d="M551.76 401.373C290.981 449.073 376.861 212.403 192.926 242.895" stroke="white" stroke-width="0.685596"/>
</g>
<g style="mix-blend-mode:plus-lighter" opacity="0.58" filter="url(#filter13_f_2320_5474)">
<path d="M501.668 461.66C500.793 196.557 283.858 324.335 280.143 137.927" stroke="white" stroke-width="0.685596"/>
</g>
<g style="mix-blend-mode:plus-lighter" opacity="0.72" filter="url(#filter14_f_2320_5474)">
<path d="M492.634 402.428C357.491 320.733 278.289 252.597 247.037 198.365" stroke="white" stroke-width="0.685596"/>
</g>
<g style="mix-blend-mode:plus-lighter" opacity="0.93" filter="url(#filter15_f_2320_5474)">
<path d="M484.66 396.803C379.592 278.911 298.103 213.53 239.063 192.741" stroke="white" stroke-width="0.685596"/>
</g>
</g>
<mask id="mask1_2320_5474" style="mask-type:alpha" maskUnits="userSpaceOnUse" x="156" y="99" width="418" height="396">
<rect opacity="0.75" x="573.528" y="337.807" width="203.878" height="373.247" transform="rotate(129.723 573.528 337.807)" fill="url(#paint8_linear_2320_5474)"/>
</mask>
<g mask="url(#mask1_2320_5474)">
<g style="mix-blend-mode:overlay" clip-path="url(#clip1_2320_5474)">
<circle opacity="0.43" cx="385.639" cy="327.281" r="0.782892" transform="rotate(-107.277 385.639 327.281)" fill="white"/>
<circle opacity="0.31" cx="377.621" cy="330.744" r="0.782892" transform="rotate(-167.277 377.621 330.744)" fill="white"/>
<circle opacity="0.51" cx="386.827" cy="304.664" r="0.884668" transform="rotate(-85.2773 386.827 304.664)" fill="white"/>
<circle opacity="0.53" cx="385.581" cy="309.947" r="0.782892" transform="rotate(-20.2773 385.581 309.947)" fill="white"/>
<circle opacity="0.8" cx="381.46" cy="319.829" r="0.782892" transform="rotate(-17.2773 381.46 319.829)" fill="white"/>
<circle opacity="0.69" cx="376.677" cy="320.318" r="0.782892" transform="rotate(-45.2773 376.677 320.318)" fill="white"/>
<circle opacity="0.75" cx="369.902" cy="322.988" r="0.782892" transform="rotate(164.723 369.902 322.988)" fill="white"/>
<circle opacity="0.38" cx="368.556" cy="328.004" r="0.782892" transform="rotate(110.723 368.556 328.004)" fill="white"/>
<circle opacity="0.64" cx="364.295" cy="326.843" r="0.782892" transform="rotate(-85.2773 364.295 326.843)" fill="white"/>
<circle opacity="0.28" cx="385.467" cy="293.544" r="0.782892" transform="rotate(-106.277 385.467 293.544)" fill="white"/>
<circle opacity="0.1" cx="386.04" cy="299.413" r="0.782892" transform="rotate(34.7227 386.04 299.413)" fill="white"/>
<circle opacity="0.12" cx="377.685" cy="300.203" r="0.884668" transform="rotate(-23.2773 377.685 300.203)" fill="white"/>
<circle opacity="0.12" cx="377.355" cy="306.118" r="0.782892" transform="rotate(-94.2773 377.355 306.118)" fill="white"/>
<circle opacity="0.11" cx="376.237" cy="308.835" r="0.782892" transform="rotate(-41.2773 376.237 308.835)" fill="white"/>
<circle opacity="0.2" cx="368.844" cy="317.678" r="0.782892" transform="rotate(33.7227 368.844 317.678)" fill="white"/>
<circle opacity="0.33" cx="366.055" cy="320.706" r="0.782892" transform="rotate(48.7227 366.055 320.706)" fill="white"/>
<circle opacity="0.45" cx="362.145" cy="322.65" r="0.892497" transform="rotate(-157.277 362.145 322.65)" fill="white"/>
<circle opacity="0.11" cx="357.655" cy="326.613" r="0.782892" transform="rotate(-13.2773 357.655 326.613)" fill="white"/>
<circle opacity="0.14" cx="358.156" cy="330.941" r="0.814207" transform="rotate(-118.277 358.156 330.941)" fill="white"/>
<circle opacity="0.42" cx="385.591" cy="274.986" r="0.806379" transform="rotate(163.723 385.591 274.986)" fill="white"/>
<circle opacity="0.26" cx="385.857" cy="282.636" r="0.93947" transform="rotate(-128.277 385.857 282.636)" fill="white"/>
<circle opacity="0.53" cx="382.504" cy="289.552" r="0.931641" transform="rotate(-37.2773 382.504 289.552)" fill="white"/>
<circle opacity="0.59" cx="379.211" cy="291.406" r="0.782892" transform="rotate(-107.277 379.211 291.406)" fill="white"/>
<circle opacity="0.52" cx="375.288" cy="297.973" r="0.782892" transform="rotate(-36.2773 375.288 297.973)" fill="white"/>
<circle opacity="0.37" cx="366.782" cy="295.97" r="0.814207" transform="rotate(116.723 366.782 295.97)" fill="white"/>
<circle opacity="0.79" cx="360.113" cy="300.894" r="0.782892" transform="rotate(152.723 360.113 300.894)" fill="white"/>
<circle opacity="0.71" cx="362.351" cy="306.14" r="0.782892" transform="rotate(-131.277 362.351 306.14)" fill="white"/>
<circle opacity="0.68" cx="357.151" cy="307.169" r="0.782892" transform="rotate(-146.277 357.151 307.169)" fill="white"/>
<circle opacity="0.35" cx="356.107" cy="317.935" r="0.782892" transform="rotate(-166.277 356.107 317.935)" fill="white"/>
<circle opacity="0.85" cx="349.298" cy="318.181" r="0.923812" transform="rotate(-89.2773 349.298 318.181)" fill="white"/>
<circle opacity="0.41" cx="344.996" cy="320.786" r="0.782892" transform="rotate(81.7227 344.996 320.786)" fill="white"/>
<circle opacity="0.72" cx="343.506" cy="327.806" r="0.837694" transform="rotate(-82.2773 343.506 327.806)" fill="white"/>
<circle opacity="0.48" cx="379.84" cy="272.703" r="0.86901" transform="rotate(-59.2773 379.84 272.703)" fill="white"/>
<circle opacity="0.18" cx="374.978" cy="277.696" r="0.782892" transform="rotate(-86.2773 374.978 277.696)" fill="white"/>
<circle opacity="0.27" cx="368.564" cy="281.696" r="0.782892" transform="rotate(27.7227 368.564 281.696)" fill="white"/>
<circle opacity="0.25" cx="371.626" cy="286.001" r="0.845523" transform="rotate(95.7227 371.626 286.001)" fill="white"/>
<circle opacity="0.68" cx="368.936" cy="288.646" r="0.782892" transform="rotate(-35.2773 368.936 288.646)" fill="white"/>
<circle opacity="0.58" cx="357.836" cy="294.446" r="0.782892" transform="rotate(126.723 357.836 294.446)" fill="white"/>
<circle opacity="0.84" cx="359.056" cy="300.383" r="0.782892" transform="rotate(33.7227 359.056 300.383)" fill="white"/>
<circle opacity="0.18" cx="355.481" cy="303.009" r="0.782892" transform="rotate(95.7227 355.481 303.009)" fill="white"/>
<circle opacity="0.83" cx="351.47" cy="306.682" r="0.782892" transform="rotate(-154.277 351.47 306.682)" fill="white"/>
<circle opacity="0.35" cx="346.772" cy="307.389" r="0.782892" transform="rotate(-63.2773 346.772 307.389)" fill="white"/>
<circle opacity="0.59" cx="347.209" cy="314.014" r="0.782892" transform="rotate(176.723 347.209 314.014)" fill="white"/>
<circle opacity="0.61" cx="338.387" cy="315.109" r="0.782892" transform="rotate(-152.277 338.387 315.109)" fill="white"/>
<circle opacity="0.52" cx="338.992" cy="324.768" r="0.782892" transform="rotate(114.723 338.992 324.768)" fill="white"/>
<circle opacity="0.41" cx="333.713" cy="324.604" r="0.900325" transform="rotate(-96.2773 333.713 324.604)" fill="white"/>
<circle opacity="0.36" cx="327.785" cy="326.966" r="0.814207" transform="rotate(-92.2773 327.785 326.966)" fill="white"/>
<circle opacity="0.77" cx="383.473" cy="252.214" r="0.782892" transform="rotate(-110.277 383.473 252.214)" fill="white"/>
<circle opacity="0.76" cx="377.932" cy="255.323" r="0.782892" transform="rotate(53.7227 377.932 255.323)" fill="white"/>
<circle opacity="0.4" cx="375.351" cy="266.369" r="0.782892" transform="rotate(118.723 375.351 266.369)" fill="white"/>
<circle opacity="0.16" cx="372.539" cy="264.525" r="0.908154" transform="rotate(-60.2773 372.539 264.525)" fill="white"/>
<circle opacity="0.22" cx="366.229" cy="264.778" r="0.782892" transform="rotate(-143.277 366.229 264.778)" fill="white"/>
<circle opacity="0.54" cx="363.354" cy="271.217" r="0.782892" transform="rotate(-121.277 363.354 271.217)" fill="white"/>
<circle opacity="0.16" cx="362.456" cy="278.692" r="0.782892" transform="rotate(-177.277 362.456 278.692)" fill="white"/>
<circle opacity="0.26" cx="360.846" cy="284.327" r="0.93947" transform="rotate(97.7227 360.846 284.327)" fill="white"/>
<circle opacity="0.47" cx="355.307" cy="285.741" r="0.876839" transform="rotate(-120.277 355.307 285.741)" fill="white"/>
<circle opacity="0.13" cx="347.81" cy="287.241" r="0.782892" transform="rotate(119.723 347.81 287.241)" fill="white"/>
<circle opacity="0.74" cx="344.027" cy="291.317" r="0.782892" transform="rotate(-153.277 344.027 291.317)" fill="white"/>
<circle opacity="0.2" cx="343.207" cy="299.181" r="0.782892" transform="rotate(-78.2773 343.207 299.181)" fill="white"/>
<circle opacity="0.32" cx="341.879" cy="305.142" r="0.782892" transform="rotate(-96.2773 341.879 305.142)" fill="white"/>
<circle opacity="0.83" cx="338.892" cy="309.537" r="0.782892" transform="rotate(160.723 338.892 309.537)" fill="white"/>
<circle opacity="0.35" cx="334.265" cy="311.018" r="0.782892" transform="rotate(18.7227 334.265 311.018)" fill="white"/>
<circle opacity="0.36" cx="329.686" cy="313.276" r="0.79855" transform="rotate(-166.277 329.686 313.276)" fill="white"/>
<circle opacity="0.14" cx="329.803" cy="321.372" r="0.782892" transform="rotate(10.7227 329.803 321.372)" fill="white"/>
<circle opacity="0.27" cx="325.314" cy="327.83" r="0.782892" transform="rotate(75.7227 325.314 327.83)" fill="white"/>
<circle opacity="0.22" cx="317.892" cy="326.928" r="0.876839" transform="rotate(77.7227 317.892 326.928)" fill="white"/>
<circle opacity="0.5" cx="386.082" cy="231.788" r="0.829865" transform="rotate(-27.2773 386.082 231.788)" fill="white"/>
<circle opacity="0.46" cx="383.558" cy="240.833" r="0.782892" transform="rotate(72.7227 383.558 240.833)" fill="white"/>
<circle opacity="0.17" cx="383.142" cy="244.909" r="0.782892" transform="rotate(25.7227 383.142 244.909)" fill="white"/>
<circle opacity="0.21" cx="373.787" cy="248.741" r="0.782892" transform="rotate(121.723 373.787 248.741)" fill="white"/>
<circle opacity="0.9" cx="371.46" cy="253.864" r="0.790721" transform="rotate(126.723 371.46 253.864)" fill="white"/>
<circle opacity="0.68" cx="363.974" cy="252.842" r="0.782892" transform="rotate(-149.277 363.974 252.842)" fill="white"/>
<circle opacity="0.85" cx="368.106" cy="261.612" r="0.782892" transform="rotate(81.7227 368.106 261.612)" fill="white"/>
<circle opacity="0.23" cx="363.081" cy="266.38" r="0.853352" transform="rotate(123.723 363.081 266.38)" fill="white"/>
<circle opacity="0.82" cx="358.858" cy="272.203" r="0.782892" transform="rotate(99.7227 358.858 272.203)" fill="white"/>
<circle opacity="0.44" cx="358.938" cy="272.494" r="0.782892" transform="rotate(-97.2773 358.938 272.494)" fill="white"/>
<circle opacity="0.36" cx="354.203" cy="277.776" r="0.782892" transform="rotate(-111.277 354.203 277.776)" fill="white"/>
<circle opacity="0.9" cx="352.581" cy="281.701" r="0.93947" transform="rotate(-49.2773 352.581 281.701)" fill="white"/>
<circle opacity="0.84" cx="346.818" cy="286.606" r="0.782892" transform="rotate(102.723 346.818 286.606)" fill="white"/>
<circle opacity="0.82" cx="342.807" cy="290.502" r="0.915983" transform="rotate(55.7227 342.807 290.502)" fill="white"/>
<circle opacity="0.41" cx="341.077" cy="295.504" r="0.782892" transform="rotate(27.7227 341.077 295.504)" fill="white"/>
<circle opacity="0.34" cx="337.19" cy="297.19" r="0.876839" transform="rotate(-67.2773 337.19 297.19)" fill="white"/>
<circle opacity="0.21" cx="329.932" cy="303.358" r="0.782892" transform="rotate(-168.277 329.932 303.358)" fill="white"/>
<circle opacity="0.76" cx="326.219" cy="311.186" r="0.79855" transform="rotate(109.723 326.219 311.186)" fill="white"/>
<circle opacity="0.54" cx="320.282" cy="312.561" r="0.782892" transform="rotate(153.723 320.282 312.561)" fill="white"/>
<circle opacity="0.17" cx="317.522" cy="313.824" r="0.782892" transform="rotate(39.7227 317.522 313.824)" fill="white"/>
<circle opacity="0.87" cx="315.732" cy="316.485" r="0.782892" transform="rotate(-2.27727 315.732 316.485)" fill="white"/>
<circle opacity="0.79" cx="311.508" cy="326.432" r="0.782892" transform="rotate(6.72273 311.508 326.432)" fill="white"/>
<circle opacity="0.61" cx="310.615" cy="327.939" r="0.845523" transform="rotate(94.7227 310.615 327.939)" fill="white"/>
<circle opacity="0.63" cx="379.535" cy="219.433" r="0.782892" transform="rotate(147.723 379.535 219.433)" fill="white"/>
<circle opacity="0.43" cx="380.893" cy="226.693" r="0.923812" transform="rotate(84.7227 380.893 226.693)" fill="white"/>
<circle opacity="0.73" cx="375.937" cy="228.678" r="0.782892" transform="rotate(146.723 375.937 228.678)" fill="white"/>
<circle opacity="0.16" cx="374.726" cy="233.595" r="0.853352" transform="rotate(100.723 374.726 233.595)" fill="white"/>
<circle opacity="0.76" cx="371.16" cy="234.976" r="0.782892" transform="rotate(26.7227 371.16 234.976)" fill="white"/>
<circle opacity="0.42" cx="367.26" cy="245.641" r="0.782892" transform="rotate(81.7227 367.26 245.641)" fill="white"/>
<circle opacity="0.13" cx="365.321" cy="246.837" r="0.782892" transform="rotate(-41.2773 365.321 246.837)" fill="white"/>
<circle opacity="0.16" cx="360.612" cy="249.877" r="0.782892" transform="rotate(129.723 360.612 249.877)" fill="white"/>
<circle opacity="0.51" cx="354.625" cy="250.308" r="0.782892" transform="rotate(106.723 354.625 250.308)" fill="white"/>
<circle opacity="0.87" cx="354.814" cy="259.482" r="0.782892" transform="rotate(-41.2773 354.814 259.482)" fill="white"/>
<circle opacity="0.89" cx="353.441" cy="263.478" r="0.892497" transform="rotate(43.7227 353.441 263.478)" fill="white"/>
<circle opacity="0.22" cx="348.329" cy="272.131" r="0.782892" transform="rotate(33.7227 348.329 272.131)" fill="white"/>
<circle opacity="0.75" cx="340.712" cy="271.313" r="0.892497" transform="rotate(48.7227 340.712 271.313)" fill="white"/>
<circle opacity="0.33" cx="339.659" cy="279.556" r="0.782892" transform="rotate(57.7227 339.659 279.556)" fill="white"/>
<circle opacity="0.89" cx="330.547" cy="278.188" r="0.814207" transform="rotate(160.723 330.547 278.188)" fill="white"/>
<circle opacity="0.26" cx="334.488" cy="287.739" r="0.853352" transform="rotate(75.7227 334.488 287.739)" fill="white"/>
<circle opacity="0.59" cx="331.403" cy="289.819" r="0.782892" transform="rotate(44.7227 331.403 289.819)" fill="white"/>
<circle opacity="0.54" cx="326.369" cy="295.475" r="0.79855" transform="rotate(-175.277 326.369 295.475)" fill="white"/>
<circle opacity="0.68" cx="322.209" cy="291.915" r="0.782892" transform="rotate(-112.277 322.209 291.915)" fill="white"/>
<circle opacity="0.46" cx="316.351" cy="300.912" r="0.837694" transform="rotate(117.723 316.351 300.912)" fill="white"/>
<circle opacity="0.64" cx="312.521" cy="300.713" r="0.782892" transform="rotate(116.723 312.521 300.713)" fill="white"/>
<circle opacity="0.47" cx="312.696" cy="312.067" r="0.845523" transform="rotate(-154.277 312.696 312.067)" fill="white"/>
<circle opacity="0.38" cx="305.694" cy="311.255" r="0.782892" transform="rotate(121.723 305.694 311.255)" fill="white"/>
<circle opacity="0.76" cx="300.681" cy="314.38" r="0.782892" transform="rotate(-155.277 300.681 314.38)" fill="white"/>
<circle opacity="0.17" cx="298.06" cy="318.645" r="0.782892" transform="rotate(-108.277 298.06 318.645)" fill="white"/>
<circle opacity="0.13" cx="297.38" cy="323.64" r="0.782892" transform="rotate(124.723 297.38 323.64)" fill="white"/>
<circle opacity="0.86" cx="293.31" cy="327.739" r="0.829865" transform="rotate(67.7227 293.31 327.739)" fill="white"/>
<circle opacity="0.13" cx="384.764" cy="204.111" r="0.845523" transform="rotate(114.723 384.764 204.111)" fill="white"/>
<circle opacity="0.26" cx="385.021" cy="213.225" r="0.782892" transform="rotate(43.7227 385.021 213.225)" fill="white"/>
<circle opacity="0.54" cx="374.194" cy="215.738" r="0.782892" transform="rotate(70.7227 374.194 215.738)" fill="white"/>
<circle opacity="0.29" cx="377.002" cy="218.293" r="0.900325" transform="rotate(-125.277 377.002 218.293)" fill="white"/>
<circle opacity="0.11" cx="373.2" cy="220.379" r="0.837694" transform="rotate(-129.277 373.2 220.379)" fill="white"/>
<circle opacity="0.62" cx="368.89" cy="223.792" r="0.782892" transform="rotate(-107.277 368.89 223.792)" fill="white"/>
<circle opacity="0.86" cx="365.654" cy="232.355" r="0.782892" transform="rotate(-115.277 365.654 232.355)" fill="white"/>
<circle opacity="0.15" cx="359.188" cy="236.071" r="0.782892" transform="rotate(-87.2773 359.188 236.071)" fill="white"/>
<circle opacity="0.55" cx="354.532" cy="239.926" r="0.782892" transform="rotate(51.7227 354.532 239.926)" fill="white"/>
<circle opacity="0.33" cx="352.106" cy="242.466" r="0.782892" transform="rotate(-76.2773 352.106 242.466)" fill="white"/>
<circle opacity="0.31" cx="347.645" cy="246.574" r="0.806378" transform="rotate(107.723 347.645 246.574)" fill="white"/>
<circle opacity="0.73" cx="346.529" cy="252.281" r="0.837694" transform="rotate(-54.2773 346.529 252.281)" fill="white"/>
<circle opacity="0.31" cx="345.382" cy="258.681" r="0.782892" transform="rotate(124.723 345.382 258.681)" fill="white"/>
<circle opacity="0.11" cx="339.031" cy="257.243" r="0.931641" transform="rotate(-10.2773 339.031 257.243)" fill="white"/>
<circle opacity="0.26" cx="335.215" cy="261.96" r="0.782892" transform="rotate(-104.277 335.215 261.96)" fill="white"/>
<circle opacity="0.29" cx="332.828" cy="265.948" r="0.782892" transform="rotate(-163.277 332.828 265.948)" fill="white"/>
<circle opacity="0.16" cx="331.293" cy="275.94" r="0.782892" transform="rotate(-24.2773 331.293 275.94)" fill="white"/>
<circle opacity="0.2" cx="322.338" cy="279.056" r="0.782892" transform="rotate(34.7227 322.338 279.056)" fill="white"/>
<circle opacity="0.47" cx="322.441" cy="281.942" r="0.782892" transform="rotate(-114.277 322.441 281.942)" fill="white"/>
<circle opacity="0.16" cx="321.352" cy="290.334" r="0.853352" transform="rotate(25.7227 321.352 290.334)" fill="white"/>
<circle opacity="0.29" cx="312.325" cy="288.344" r="0.782892" transform="rotate(-151.277 312.325 288.344)" fill="white"/>
<circle opacity="0.53" cx="311.579" cy="290.2" r="0.782892" transform="rotate(-111.277 311.579 290.2)" fill="white"/>
<circle opacity="0.58" cx="313.505" cy="299.918" r="0.822036" transform="rotate(-20.2773 313.505 299.918)" fill="white"/>
<circle opacity="0.3" cx="304.182" cy="301.225" r="0.790721" transform="rotate(-25.2773 304.182 301.225)" fill="white"/>
<circle opacity="0.17" cx="301.005" cy="304.123" r="0.782892" transform="rotate(176.723 301.005 304.123)" fill="white"/>
<circle opacity="0.27" cx="299.744" cy="308.965" r="0.79855" transform="rotate(-124.277 299.744 308.965)" fill="white"/>
<circle opacity="0.56" cx="292.406" cy="314.674" r="0.782892" transform="rotate(-157.277 292.406 314.674)" fill="white"/>
<circle opacity="0.19" cx="292.669" cy="321.828" r="0.900325" transform="rotate(129.723 292.669 321.828)" fill="white"/>
<circle opacity="0.49" cx="287.033" cy="323.705" r="0.908154" transform="rotate(-64.2773 287.033 323.705)" fill="white"/>
<circle opacity="0.9" cx="281.976" cy="324.96" r="0.806378" transform="rotate(133.723 281.976 324.96)" fill="white"/>
<circle opacity="0.45" cx="381.708" cy="200.917" r="0.782892" transform="rotate(-116.277 381.708 200.917)" fill="white"/>
<circle opacity="0.87" cx="377.224" cy="203.806" r="0.806378" transform="rotate(1.72274 377.224 203.806)" fill="white"/>
<circle opacity="0.54" cx="373.4" cy="213.143" r="0.782892" transform="rotate(-27.2773 373.4 213.143)" fill="white"/>
<circle opacity="0.41" cx="372.949" cy="213.305" r="0.782892" transform="rotate(-50.2773 372.949 213.305)" fill="white"/>
<circle opacity="0.55" cx="360.253" cy="214.115" r="0.782892" transform="rotate(119.723 360.253 214.115)" fill="white"/>
<circle opacity="0.11" cx="358.626" cy="220.284" r="0.923812" transform="rotate(62.7227 358.626 220.284)" fill="white"/>
<circle opacity="0.62" cx="359.975" cy="224.51" r="0.806378" transform="rotate(-21.2773 359.975 224.51)" fill="white"/>
<circle opacity="0.4" cx="351.277" cy="225.247" r="0.923812" transform="rotate(-114.277 351.277 225.247)" fill="white"/>
<circle opacity="0.16" cx="350.107" cy="238.016" r="0.86901" transform="rotate(138.723 350.107 238.016)" fill="white"/>
<circle opacity="0.44" cx="346.04" cy="235.807" r="0.782892" transform="rotate(-144.277 346.04 235.807)" fill="white"/>
<circle opacity="0.81" cx="343.63" cy="241.047" r="0.782892" transform="rotate(-150.277 343.63 241.047)" fill="white"/>
<circle opacity="0.13" cx="340.183" cy="246.735" r="0.782892" transform="rotate(-91.2773 340.183 246.735)" fill="white"/>
<circle opacity="0.16" cx="337.46" cy="252.433" r="0.782892" transform="rotate(81.7227 337.46 252.433)" fill="white"/>
<circle opacity="0.41" cx="332.982" cy="254.554" r="0.782892" transform="rotate(0.722737 332.982 254.554)" fill="white"/>
<circle opacity="0.2" cx="325.915" cy="254.936" r="0.782892" transform="rotate(-155.277 325.915 254.936)" fill="white"/>
<circle opacity="0.36" cx="325.071" cy="263.157" r="0.908154" transform="rotate(-150.277 325.071 263.157)" fill="white"/>
<circle opacity="0.9" cx="320.488" cy="269.594" r="0.782892" transform="rotate(-0.277266 320.488 269.594)" fill="white"/>
<circle opacity="0.23" cx="320.36" cy="272.36" r="0.853352" transform="rotate(-7.27726 320.36 272.36)" fill="white"/>
<circle opacity="0.55" cx="314.13" cy="276.247" r="0.782892" transform="rotate(-179.277 314.13 276.247)" fill="white"/>
<circle opacity="0.39" cx="310.954" cy="278.599" r="0.782892" transform="rotate(-15.2773 310.954 278.599)" fill="white"/>
<circle opacity="0.28" cx="311.357" cy="285.141" r="0.782892" transform="rotate(31.7227 311.357 285.141)" fill="white"/>
<circle opacity="0.22" cx="308.707" cy="288.331" r="0.782892" transform="rotate(-42.2773 308.707 288.331)" fill="white"/>
<circle opacity="0.7" cx="303.413" cy="290.367" r="0.876839" transform="rotate(-110.277 303.413 290.367)" fill="white"/>
<circle opacity="0.38" cx="299.391" cy="299.934" r="0.806378" transform="rotate(0.722737 299.391 299.934)" fill="white"/>
<circle opacity="0.14" cx="296.425" cy="305.5" r="0.829865" transform="rotate(38.7227 296.425 305.5)" fill="white"/>
<circle opacity="0.87" cx="291.823" cy="304.041" r="0.782892" transform="rotate(9.72273 291.823 304.041)" fill="white"/>
<circle opacity="0.12" cx="284.906" cy="308.969" r="0.782892" transform="rotate(-179.277 284.906 308.969)" fill="white"/>
<circle opacity="0.45" cx="284.004" cy="312.627" r="0.853352" transform="rotate(-153.277 284.004 312.627)" fill="white"/>
<circle opacity="0.39" cx="280.146" cy="322.503" r="0.782892" transform="rotate(41.7227 280.146 322.503)" fill="white"/>
<circle opacity="0.55" cx="277.357" cy="321.03" r="0.845523" transform="rotate(-53.2773 277.357 321.03)" fill="white"/>
<circle opacity="0.82" cx="368.017" cy="191.5" r="0.782892" transform="rotate(-86.2773 368.017 191.5)" fill="white"/>
<circle opacity="0.8" cx="368.241" cy="194.941" r="0.782892" transform="rotate(-127.277 368.241 194.941)" fill="white"/>
<circle opacity="0.56" cx="359.711" cy="201.759" r="0.915983" transform="rotate(-166.277 359.711 201.759)" fill="white"/>
<circle opacity="0.11" cx="360.657" cy="211.356" r="0.908154" transform="rotate(37.7227 360.657 211.356)" fill="white"/>
<circle opacity="0.63" cx="354.6" cy="207.966" r="0.853352" transform="rotate(-175.277 354.6 207.966)" fill="white"/>
<circle opacity="0.71" cx="357.364" cy="216.209" r="0.790721" transform="rotate(-98.2773 357.364 216.209)" fill="white"/>
<circle opacity="0.47" cx="348.37" cy="216.11" r="0.853352" transform="rotate(-135.277 348.37 216.11)" fill="white"/>
<circle opacity="0.58" cx="345.455" cy="218.383" r="0.86901" transform="rotate(-95.2773 345.455 218.383)" fill="white"/>
<circle opacity="0.35" cx="347.433" cy="227.465" r="0.782892" transform="rotate(-122.277 347.433 227.465)" fill="white"/>
<circle opacity="0.39" cx="340.491" cy="234.917" r="0.782892" transform="rotate(-69.2773 340.491 234.917)" fill="white"/>
<circle opacity="0.34" cx="333.435" cy="237.355" r="0.931641" transform="rotate(-9.27727 333.435 237.355)" fill="white"/>
<circle opacity="0.43" cx="331.299" cy="237.16" r="0.822036" transform="rotate(11.7227 331.299 237.16)" fill="white"/>
<circle opacity="0.37" cx="328.106" cy="239.827" r="0.782892" transform="rotate(-76.2773 328.106 239.827)" fill="white"/>
<circle opacity="0.41" cx="328.644" cy="251.933" r="0.782892" transform="rotate(46.7227 328.644 251.933)" fill="white"/>
<circle opacity="0.68" cx="324.79" cy="253.184" r="0.837694" transform="rotate(-91.2773 324.79 253.184)" fill="white"/>
<circle opacity="0.89" cx="319.562" cy="261.145" r="0.845523" transform="rotate(-21.2773 319.562 261.145)" fill="white"/>
<circle opacity="0.52" cx="315.921" cy="262.835" r="0.782892" transform="rotate(115.723 315.921 262.835)" fill="white"/>
<circle opacity="0.34" cx="311.282" cy="266.429" r="0.86901" transform="rotate(97.7227 311.282 266.429)" fill="white"/>
<circle opacity="0.75" cx="305.212" cy="268.146" r="0.822036" transform="rotate(122.723 305.212 268.146)" fill="white"/>
<circle opacity="0.74" cx="305.325" cy="279.579" r="0.782892" transform="rotate(62.7227 305.325 279.579)" fill="white"/>
<circle opacity="0.36" cx="299.201" cy="277.482" r="0.782892" transform="rotate(-153.277 299.201 277.482)" fill="white"/>
<circle opacity="0.82" cx="298.279" cy="284.517" r="0.908154" transform="rotate(-8.27726 298.279 284.517)" fill="white"/>
<circle opacity="0.66" cx="298.217" cy="289.08" r="0.782892" transform="rotate(-28.2773 298.217 289.08)" fill="white"/>
<circle opacity="0.38" cx="294.535" cy="290.996" r="0.782892" transform="rotate(-33.2773 294.535 290.996)" fill="white"/>
<circle opacity="0.32" cx="284.29" cy="293.285" r="0.782892" transform="rotate(36.7227 284.29 293.285)" fill="white"/>
<circle opacity="0.25" cx="280.902" cy="300.094" r="0.782892" transform="rotate(-30.2773 280.902 300.094)" fill="white"/>
<circle opacity="0.34" cx="277.892" cy="298.332" r="0.782892" transform="rotate(-147.277 277.892 298.332)" fill="white"/>
<circle opacity="0.7" cx="275.062" cy="309.36" r="0.861181" transform="rotate(119.723 275.062 309.36)" fill="white"/>
<circle opacity="0.84" cx="273.411" cy="310.38" r="0.782892" transform="rotate(-82.2773 273.411 310.38)" fill="white"/>
<circle opacity="0.29" cx="269.525" cy="313.917" r="0.782892" transform="rotate(5.72273 269.525 313.917)" fill="white"/>
<circle opacity="0.43" cx="360.47" cy="186.501" r="0.782892" transform="rotate(-179.277 360.47 186.501)" fill="white"/>
<circle opacity="0.66" cx="357.142" cy="194.553" r="0.822036" transform="rotate(88.7227 357.142 194.553)" fill="white"/>
<circle opacity="0.8" cx="357.299" cy="198.68" r="0.93947" transform="rotate(-115.277 357.299 198.68)" fill="white"/>
<circle opacity="0.17" cx="350.65" cy="199.524" r="0.892497" transform="rotate(-17.2773 350.65 199.524)" fill="white"/>
<circle opacity="0.86" cx="344.004" cy="204.778" r="0.782892" transform="rotate(112.723 344.004 204.778)" fill="white"/>
<circle opacity="0.59" cx="346.817" cy="207.495" r="0.782892" transform="rotate(-82.2773 346.817 207.495)" fill="white"/>
<circle opacity="0.36" cx="346.288" cy="214.222" r="0.837694" transform="rotate(-123.277 346.288 214.222)" fill="white"/>
<circle opacity="0.36" cx="341.168" cy="217.194" r="0.782892" transform="rotate(-66.2773 341.168 217.194)" fill="white"/>
<circle opacity="0.81" cx="338.026" cy="224.25" r="0.782892" transform="rotate(111.723 338.026 224.25)" fill="white"/>
<circle opacity="0.23" cx="333.245" cy="226.84" r="0.782892" transform="rotate(144.723 333.245 226.84)" fill="white"/>
<circle opacity="0.35" cx="326.419" cy="228.27" r="0.782892" transform="rotate(23.7227 326.419 228.27)" fill="white"/>
<circle opacity="0.62" cx="325.828" cy="235.522" r="0.782892" transform="rotate(60.7227 325.828 235.522)" fill="white"/>
<circle opacity="0.72" cx="319.077" cy="235.056" r="0.782892" transform="rotate(102.723 319.077 235.056)" fill="white"/>
<circle opacity="0.7" cx="316.691" cy="241.838" r="0.900325" transform="rotate(-145.277 316.691 241.838)" fill="white"/>
<circle opacity="0.26" cx="315.818" cy="245.929" r="0.782892" transform="rotate(23.7227 315.818 245.929)" fill="white"/>
<circle opacity="0.27" cx="310.662" cy="252.618" r="0.93947" transform="rotate(10.7227 310.662 252.618)" fill="white"/>
<circle opacity="0.13" cx="305.884" cy="251.859" r="0.782892" transform="rotate(-82.2773 305.884 251.859)" fill="white"/>
<circle opacity="0.65" cx="301.588" cy="258.155" r="0.782892" transform="rotate(-34.2773 301.588 258.155)" fill="white"/>
<circle opacity="0.59" cx="298.513" cy="264.227" r="0.782892" transform="rotate(28.7227 298.513 264.227)" fill="white"/>
<circle opacity="0.68" cx="297.69" cy="271.851" r="0.782892" transform="rotate(176.723 297.69 271.851)" fill="white"/>
<circle opacity="0.45" cx="291.085" cy="268.287" r="0.782892" transform="rotate(-130.277 291.085 268.287)" fill="white"/>
<circle opacity="0.63" cx="289.21" cy="277.874" r="0.782892" transform="rotate(28.7227 289.21 277.874)" fill="white"/>
<circle opacity="0.51" cx="289.456" cy="283.014" r="0.782892" transform="rotate(-111.277 289.456 283.014)" fill="white"/>
<circle opacity="0.19" cx="281.64" cy="282.494" r="0.876839" transform="rotate(-23.2773 281.64 282.494)" fill="white"/>
<circle opacity="0.52" cx="277.14" cy="286.897" r="0.782892" transform="rotate(153.723 277.14 286.897)" fill="white"/>
<circle opacity="0.49" cx="279.532" cy="297.083" r="0.782892" transform="rotate(-23.2773 279.532 297.083)" fill="white"/>
<circle opacity="0.44" cx="277.102" cy="299.564" r="0.782892" transform="rotate(-51.2773 277.102 299.564)" fill="white"/>
<circle opacity="0.69" cx="272.997" cy="302.552" r="0.782892" transform="rotate(5.72273 272.997 302.552)" fill="white"/>
<circle opacity="0.22" cx="267.747" cy="307.715" r="0.79855" transform="rotate(-77.2773 267.747 307.715)" fill="white"/>
<circle opacity="0.9" cx="258.668" cy="308.085" r="0.782892" transform="rotate(91.7227 258.668 308.085)" fill="white"/>
<circle opacity="0.62" cx="358.12" cy="183.33" r="0.782892" transform="rotate(-113.277 358.12 183.33)" fill="white"/>
<circle opacity="0.25" cx="353.516" cy="182.957" r="0.876839" transform="rotate(-148.277 353.516 182.957)" fill="white"/>
<circle opacity="0.77" cx="350.608" cy="191.725" r="0.782892" transform="rotate(127.723 350.608 191.725)" fill="white"/>
<circle opacity="0.55" cx="346.188" cy="192.762" r="0.782892" transform="rotate(-114.277 346.188 192.762)" fill="white"/>
<circle opacity="0.5" cx="345.994" cy="202.425" r="0.782892" transform="rotate(-34.2773 345.994 202.425)" fill="white"/>
<circle opacity="0.45" cx="336.879" cy="203.499" r="0.782892" transform="rotate(29.7227 336.879 203.499)" fill="white"/>
<circle opacity="0.65" cx="337.372" cy="205.004" r="0.782892" transform="rotate(-57.2773 337.372 205.004)" fill="white"/>
<circle opacity="0.51" cx="332.71" cy="212.73" r="0.782892" transform="rotate(59.7227 332.71 212.73)" fill="white"/>
<circle opacity="0.62" cx="325.311" cy="213.824" r="0.782892" transform="rotate(75.7227 325.311 213.824)" fill="white"/>
<circle opacity="0.14" cx="324.685" cy="218.102" r="0.782892" transform="rotate(-44.2773 324.685 218.102)" fill="white"/>
<circle opacity="0.77" cx="318.892" cy="219.583" r="0.782892" transform="rotate(162.723 318.892 219.583)" fill="white"/>
<circle opacity="0.19" cx="314.699" cy="224.636" r="0.782892" transform="rotate(-172.277 314.699 224.636)" fill="white"/>
<circle opacity="0.4" cx="313.157" cy="232.214" r="0.861181" transform="rotate(111.723 313.157 232.214)" fill="white"/>
<circle opacity="0.49" cx="312.573" cy="239.293" r="0.837694" transform="rotate(-178.277 312.573 239.293)" fill="white"/>
<circle opacity="0.66" cx="308.612" cy="242.457" r="0.782892" transform="rotate(119.723 308.612 242.457)" fill="white"/>
<circle opacity="0.2" cx="304.021" cy="244.814" r="0.782892" transform="rotate(165.723 304.021 244.814)" fill="white"/>
<circle opacity="0.62" cx="301.17" cy="245.717" r="0.915983" transform="rotate(-76.2773 301.17 245.717)" fill="white"/>
<circle opacity="0.27" cx="296.325" cy="251.009" r="0.782892" transform="rotate(-91.2773 296.325 251.009)" fill="white"/>
<circle opacity="0.84" cx="296.866" cy="259.278" r="0.782892" transform="rotate(110.723 296.866 259.278)" fill="white"/>
<circle opacity="0.56" cx="295.48" cy="263.071" r="0.782892" transform="rotate(-43.2773 295.48 263.071)" fill="white"/>
<circle opacity="0.59" cx="287.212" cy="266.846" r="0.782892" transform="rotate(-92.2773 287.212 266.846)" fill="white"/>
<circle opacity="0.65" cx="285.609" cy="270.657" r="0.782892" transform="rotate(-111.277 285.609 270.657)" fill="white"/>
<circle opacity="0.83" cx="281.383" cy="274.891" r="0.915983" transform="rotate(125.723 281.383 274.891)" fill="white"/>
<circle opacity="0.6" cx="273.459" cy="276.893" r="0.782892" transform="rotate(145.723 273.459 276.893)" fill="white"/>
<circle opacity="0.8" cx="273.358" cy="284.453" r="0.806379" transform="rotate(49.7227 273.358 284.453)" fill="white"/>
<circle opacity="0.55" cx="271.353" cy="289.069" r="0.782892" transform="rotate(159.723 271.353 289.069)" fill="white"/>
<circle opacity="0.31" cx="261.994" cy="291.047" r="0.782892" transform="rotate(-137.277 261.994 291.047)" fill="white"/>
<circle opacity="0.48" cx="264.746" cy="295.522" r="0.782892" transform="rotate(-1.27726 264.746 295.522)" fill="white"/>
<circle opacity="0.13" cx="259.55" cy="301.375" r="0.782892" transform="rotate(-45.2773 259.55 301.375)" fill="white"/>
<circle opacity="0.84" cx="253.712" cy="303.487" r="0.782892" transform="rotate(-136.277 253.712 303.487)" fill="white"/>
<circle opacity="0.84" cx="349.256" cy="176.55" r="0.782892" transform="rotate(-38.2773 349.256 176.55)" fill="white"/>
<circle opacity="0.36" cx="343.992" cy="175.148" r="0.782892" transform="rotate(-148.277 343.992 175.148)" fill="white"/>
<circle opacity="0.84" cx="343.165" cy="181.498" r="0.861181" transform="rotate(-42.2773 343.165 181.498)" fill="white"/>
<circle opacity="0.77" cx="341.364" cy="190.216" r="0.782892" transform="rotate(170.723 341.364 190.216)" fill="white"/>
<circle opacity="0.79" cx="331.842" cy="192.4" r="0.782892" transform="rotate(128.723 331.842 192.4)" fill="white"/>
<circle opacity="0.39" cx="331.498" cy="194.962" r="0.782892" transform="rotate(-62.2773 331.498 194.962)" fill="white"/>
<circle opacity="0.76" cx="329.238" cy="200.674" r="0.782892" transform="rotate(-36.2773 329.238 200.674)" fill="white"/>
<circle opacity="0.16" cx="323.539" cy="205.016" r="0.782892" transform="rotate(-40.2773 323.539 205.016)" fill="white"/>
<circle opacity="0.57" cx="321.932" cy="213.063" r="0.782892" transform="rotate(78.7227 321.932 213.063)" fill="white"/>
<circle opacity="0.11" cx="318.156" cy="212.945" r="0.782892" transform="rotate(70.7227 318.156 212.945)" fill="white"/>
<circle opacity="0.12" cx="312.504" cy="218.516" r="0.782892" transform="rotate(13.7227 312.504 218.516)" fill="white"/>
<circle opacity="0.7" cx="310.783" cy="218.328" r="0.782892" transform="rotate(-116.277 310.783 218.328)" fill="white"/>
<circle opacity="0.49" cx="305.546" cy="228.426" r="0.782892" transform="rotate(179.723 305.546 228.426)" fill="white"/>
<circle opacity="0.42" cx="309.287" cy="232.291" r="0.814207" transform="rotate(-20.2773 309.287 232.291)" fill="white"/>
<circle opacity="0.52" cx="300.557" cy="237.869" r="0.884668" transform="rotate(-34.2773 300.557 237.869)" fill="white"/>
<circle opacity="0.13" cx="298.152" cy="241.897" r="0.931641" transform="rotate(169.723 298.152 241.897)" fill="white"/>
<circle opacity="0.12" cx="290.868" cy="240.167" r="0.782892" transform="rotate(94.7227 290.868 240.167)" fill="white"/>
<circle opacity="0.4" cx="291.53" cy="246.298" r="0.782892" transform="rotate(-10.2773 291.53 246.298)" fill="white"/>
<circle opacity="0.67" cx="289.763" cy="253.427" r="0.782892" transform="rotate(105.723 289.763 253.427)" fill="white"/>
<circle opacity="0.47" cx="286.969" cy="255.525" r="0.782892" transform="rotate(-76.2773 286.969 255.525)" fill="white"/>
<circle opacity="0.77" cx="280.682" cy="263.35" r="0.782892" transform="rotate(154.723 280.682 263.35)" fill="white"/>
<circle opacity="0.1" cx="275.116" cy="261.314" r="0.853352" transform="rotate(-4.27727 275.116 261.314)" fill="white"/>
<circle opacity="0.46" cx="273.409" cy="269.915" r="0.782892" transform="rotate(136.723 273.409 269.915)" fill="white"/>
<circle opacity="0.58" cx="268.399" cy="276.508" r="0.782892" transform="rotate(12.7227 268.399 276.508)" fill="white"/>
<circle opacity="0.72" cx="264.199" cy="278.569" r="0.782892" transform="rotate(135.723 264.199 278.569)" fill="white"/>
<circle opacity="0.29" cx="260.657" cy="280.379" r="0.93947" transform="rotate(-63.2773 260.657 280.379)" fill="white"/>
<circle opacity="0.39" cx="258.978" cy="282.503" r="0.782892" transform="rotate(-141.277 258.978 282.503)" fill="white"/>
<circle opacity="0.43" cx="256.998" cy="289.909" r="0.782892" transform="rotate(34.7227 256.998 289.909)" fill="white"/>
<circle opacity="0.16" cx="248.525" cy="290.141" r="0.782892" transform="rotate(-143.277 248.525 290.141)" fill="white"/>
<circle opacity="0.22" cx="245.716" cy="301.117" r="0.782892" transform="rotate(121.723 245.716 301.117)" fill="white"/>
<circle opacity="0.11" cx="339.87" cy="170.589" r="0.782892" transform="rotate(-142.277 339.87 170.589)" fill="white"/>
<circle opacity="0.64" cx="340.571" cy="174.443" r="0.782892" transform="rotate(-153.277 340.571 174.443)" fill="white"/>
<circle opacity="0.87" cx="333.213" cy="174.787" r="0.782892" transform="rotate(-101.277 333.213 174.787)" fill="white"/>
<circle opacity="0.47" cx="336.027" cy="184.825" r="0.782892" transform="rotate(49.7227 336.027 184.825)" fill="white"/>
<circle opacity="0.82" cx="330.669" cy="189.716" r="0.782892" transform="rotate(103.723 330.669 189.716)" fill="white"/>
<circle opacity="0.88" cx="328.468" cy="192.308" r="0.782892" transform="rotate(-116.277 328.468 192.308)" fill="white"/>
<circle opacity="0.43" cx="322.1" cy="194.467" r="0.782892" transform="rotate(129.723 322.1 194.467)" fill="white"/>
<circle opacity="0.3" cx="317.194" cy="195.574" r="0.782892" transform="rotate(-45.2773 317.194 195.574)" fill="white"/>
<circle opacity="0.86" cx="316.886" cy="206.055" r="0.837694" transform="rotate(-121.277 316.886 206.055)" fill="white"/>
<circle opacity="0.22" cx="311.237" cy="211.307" r="0.782892" transform="rotate(81.7227 311.237 211.307)" fill="white"/>
<circle opacity="0.77" cx="309.549" cy="214.33" r="0.923812" transform="rotate(-137.277 309.549 214.33)" fill="white"/>
<circle opacity="0.79" cx="301.472" cy="216.404" r="0.782892" transform="rotate(158.723 301.472 216.404)" fill="white"/>
<circle opacity="0.1" cx="300.34" cy="218.81" r="0.782892" transform="rotate(-116.277 300.34 218.81)" fill="white"/>
<circle opacity="0.4" cx="298.352" cy="222.184" r="0.782892" transform="rotate(-83.2773 298.352 222.184)" fill="white"/>
<circle opacity="0.53" cx="294.115" cy="230.422" r="0.782892" transform="rotate(-149.277 294.115 230.422)" fill="white"/>
<circle opacity="0.65" cx="293.179" cy="234.369" r="0.782892" transform="rotate(29.7227 293.179 234.369)" fill="white"/>
<circle opacity="0.69" cx="287.177" cy="239.405" r="0.782892" transform="rotate(-19.2773 287.177 239.405)" fill="white"/>
<circle opacity="0.9" cx="279.772" cy="237.866" r="0.782892" transform="rotate(-150.277 279.772 237.866)" fill="white"/>
<circle opacity="0.59" cx="282.678" cy="249.523" r="0.782892" transform="rotate(-36.2773 282.678 249.523)" fill="white"/>
<circle opacity="0.89" cx="279.647" cy="251.377" r="0.806378" transform="rotate(-105.277 279.647 251.377)" fill="white"/>
<circle opacity="0.25" cx="274.336" cy="254.762" r="0.782892" transform="rotate(114.723 274.336 254.762)" fill="white"/>
<circle opacity="0.82" cx="272.438" cy="258.689" r="0.782892" transform="rotate(-170.277 272.438 258.689)" fill="white"/>
<circle opacity="0.6" cx="265.065" cy="263.132" r="0.782892" transform="rotate(-49.2773 265.065 263.132)" fill="white"/>
<circle opacity="0.54" cx="260.788" cy="270.971" r="0.79855" transform="rotate(117.723 260.788 270.971)" fill="white"/>
<circle opacity="0.34" cx="261.497" cy="273.966" r="0.814207" transform="rotate(-81.2773 261.497 273.966)" fill="white"/>
<circle opacity="0.25" cx="249.978" cy="274.15" r="0.782892" transform="rotate(119.723 249.978 274.15)" fill="white"/>
<circle opacity="0.76" cx="249.378" cy="278.165" r="0.782892" transform="rotate(-100.277 249.378 278.165)" fill="white"/>
<circle opacity="0.67" cx="250.624" cy="284.287" r="0.782892" transform="rotate(-91.2773 250.624 284.287)" fill="white"/>
<circle opacity="0.64" cx="241.642" cy="286.595" r="0.782892" transform="rotate(-40.2773 241.642 286.595)" fill="white"/>
<circle opacity="0.87" cx="237.345" cy="294.567" r="0.900326" transform="rotate(104.723 237.345 294.567)" fill="white"/>
<circle opacity="0.8" cx="334.098" cy="168.067" r="0.931641" transform="rotate(43.7227 334.098 168.067)" fill="white"/>
<circle opacity="0.44" cx="331.031" cy="164.613" r="0.782892" transform="rotate(-31.2773 331.031 164.613)" fill="white"/>
<circle opacity="0.68" cx="329.257" cy="176.68" r="0.782892" transform="rotate(-18.2773 329.257 176.68)" fill="white"/>
<circle opacity="0.28" cx="324.588" cy="179.297" r="0.782892" transform="rotate(43.7227 324.588 179.297)" fill="white"/>
<circle opacity="0.42" cx="320.505" cy="182.597" r="0.782892" transform="rotate(-111.277 320.505 182.597)" fill="white"/>
<circle opacity="0.75" cx="317.067" cy="181.096" r="0.790721" transform="rotate(-139.277 317.067 181.096)" fill="white"/>
<circle opacity="0.12" cx="309.773" cy="186.953" r="0.782892" transform="rotate(-172.277 309.773 186.953)" fill="white"/>
<circle opacity="0.47" cx="307.958" cy="191.612" r="0.782892" transform="rotate(-68.2773 307.958 191.612)" fill="white"/>
<circle opacity="0.22" cx="308.782" cy="202.144" r="0.782892" transform="rotate(82.7227 308.782 202.144)" fill="white"/>
<circle opacity="0.11" cx="300.433" cy="202.332" r="0.782892" transform="rotate(84.7227 300.433 202.332)" fill="white"/>
<circle opacity="0.29" cx="300.357" cy="208.76" r="0.782892" transform="rotate(28.7227 300.357 208.76)" fill="white"/>
<circle opacity="0.75" cx="297.855" cy="214.092" r="0.782892" transform="rotate(-46.2773 297.855 214.092)" fill="white"/>
<circle opacity="0.33" cx="289.446" cy="212.427" r="0.782892" transform="rotate(107.723 289.446 212.427)" fill="white"/>
<circle opacity="0.55" cx="287.206" cy="215.77" r="0.782892" transform="rotate(85.7227 287.206 215.77)" fill="white"/>
<circle opacity="0.24" cx="288.141" cy="226.204" r="0.782892" transform="rotate(-9.27727 288.141 226.204)" fill="white"/>
<circle opacity="0.84" cx="278.579" cy="229.163" r="0.923812" transform="rotate(69.7227 278.579 229.163)" fill="white"/>
<circle opacity="0.31" cx="276.325" cy="227.796" r="0.790721" transform="rotate(123.723 276.325 227.796)" fill="white"/>
<circle opacity="0.46" cx="279.829" cy="235.255" r="0.861181" transform="rotate(-71.2773 279.829 235.255)" fill="white"/>
<circle opacity="0.12" cx="272.439" cy="240.388" r="0.782892" transform="rotate(-113.277 272.439 240.388)" fill="white"/>
<circle opacity="0.29" cx="269.969" cy="242.268" r="0.782892" transform="rotate(-165.277 269.969 242.268)" fill="white"/>
<circle opacity="0.63" cx="268.336" cy="249.658" r="0.782892" transform="rotate(-44.2773 268.336 249.658)" fill="white"/>
<circle opacity="0.13" cx="264.798" cy="253.649" r="0.861181" transform="rotate(-141.277 264.798 253.649)" fill="white"/>
<circle opacity="0.1" cx="254.523" cy="256.07" r="0.782892" transform="rotate(145.723 254.523 256.07)" fill="white"/>
<circle opacity="0.57" cx="251.018" cy="257.624" r="0.782892" transform="rotate(171.723 251.018 257.624)" fill="white"/>
<circle opacity="0.87" cx="247.707" cy="267.014" r="0.782892" transform="rotate(39.7227 247.707 267.014)" fill="white"/>
<circle opacity="0.37" cx="245.956" cy="269.629" r="0.782892" transform="rotate(-5.27726 245.956 269.629)" fill="white"/>
<circle opacity="0.69" cx="241.75" cy="272.04" r="0.782892" transform="rotate(-127.277 241.75 272.04)" fill="white"/>
<circle opacity="0.4" cx="244.843" cy="279.543" r="0.782892" transform="rotate(-78.2773 244.843 279.543)" fill="white"/>
<circle opacity="0.13" cx="240.656" cy="281.098" r="0.814207" transform="rotate(-112.277 240.656 281.098)" fill="white"/>
<circle opacity="0.18" cx="236.074" cy="288.625" r="0.782892" transform="rotate(25.7227 236.074 288.625)" fill="white"/>
</g>
</g>
</g>
</g>
<g opacity="0.3" filter="url(#filter16_f_2320_5474)">
<path d="M246.232 -43.3672C254.494 -51.651 267.948 -51.7806 276.368 -43.7559L276.766 -43.3672L294.703 -25.4307C296.871 -23.2632 300.08 -21.3052 303.497 -19.8896C306.914 -18.4741 310.568 -17.5879 313.636 -17.5879H339.012C350.896 -17.5879 360.609 -7.86564 360.609 4.00586V29.3691C360.609 32.4318 361.494 36.0867 362.908 39.5049C364.323 42.9231 366.279 46.1369 368.448 48.3057V48.3047L386.386 66.2422C394.643 74.5004 394.772 87.955 386.773 96.3818L386.386 96.7793L368.449 114.713C366.282 116.88 364.325 120.088 362.91 123.504C361.495 126.919 360.609 130.574 360.609 133.646V159.013C360.609 170.884 350.897 180.609 339.013 180.609H313.637C310.569 180.609 306.915 181.495 303.499 182.909C300.083 184.324 296.872 186.28 294.703 188.449L276.767 206.383C268.377 214.779 254.625 214.779 246.232 206.383L228.296 188.449C226.127 186.282 222.916 184.325 219.499 182.91C216.082 181.495 212.427 180.609 209.359 180.609H183.999C172.124 180.609 162.402 170.884 162.402 159.013V133.646C162.402 130.585 161.517 126.931 160.102 123.513C158.686 120.095 156.728 116.882 154.56 114.713L136.623 96.7793C128.221 88.3834 128.221 74.6348 136.623 66.2422L154.56 48.3057C156.729 46.1366 158.686 42.9231 160.102 39.5049C161.517 36.0868 162.402 32.4318 162.402 29.3691V4.00586C162.403 -7.86547 172.124 -17.5878 183.999 -17.5879H209.358C212.421 -17.5879 216.076 -18.4741 219.494 -19.8896C222.912 -21.3052 226.126 -23.2627 228.295 -25.4297V-25.4307L246.232 -43.3672ZM256.673 4.47461C253.11 4.4748 250.222 7.3628 250.222 10.9258V20.583C250.221 23.7796 247.598 26.3597 244.386 26.9619C228.998 29.8466 217.347 43.3436 217.347 59.5879C217.347 77.9159 232.215 92.7842 250.543 92.7842H272.461C278.308 92.7844 283.041 97.4925 283.091 103.331C283.08 103.364 283.073 103.398 283.073 103.434C283.068 109.307 278.316 114.06 272.435 114.061H250.539C246.736 114.06 243.402 112.069 241.521 109.07C240.613 107.622 239.49 106.136 238.152 105.011C236.814 103.884 235.243 103.103 233.451 103.103H223.795C220.252 103.103 217.245 106.015 217.914 109.581C220.428 122.974 230.99 133.536 244.383 136.05C247.595 136.653 250.219 139.233 250.219 142.43V152.087C250.219 155.65 253.107 158.538 256.67 158.538H266.327C269.89 158.538 272.778 155.65 272.778 152.087V142.422C272.778 139.228 275.397 136.649 278.606 136.045C293.968 133.151 305.603 119.692 305.639 103.498C305.645 103.473 305.649 103.446 305.649 103.419C305.647 85.0934 290.779 70.2278 272.457 70.2275H250.539C244.661 70.2275 239.903 65.4699 239.903 59.5918C239.903 53.7108 244.661 48.953 250.538 48.9521C250.547 48.9521 250.556 48.95 250.565 48.9492H272.461C276.264 48.9494 279.597 50.941 281.477 53.9414C282.384 55.3903 283.508 56.8752 284.845 58.001C286.183 59.128 287.753 59.9091 289.545 59.9092H299.202C302.745 59.909 305.752 56.9977 305.083 53.4316C302.569 40.0387 292.008 29.4773 278.617 26.9629C275.405 26.3596 272.782 23.7795 272.781 20.583V10.9258C272.781 7.36276 269.893 4.47473 266.33 4.47461H256.673Z" fill="url(#paint9_linear_2320_5474)" fill-opacity="0.5" stroke="url(#paint10_linear_2320_5474)" stroke-width="0.642093"/>
</g>
<g opacity="0.3" filter="url(#filter18_f_2320_5474)">
<path d="M262.232 -39.3672C270.494 -47.651 283.948 -47.7806 292.368 -39.7559L292.766 -39.3672L310.703 -21.4307C312.871 -19.2632 316.08 -17.3052 319.497 -15.8896C322.914 -14.4741 326.568 -13.5879 329.636 -13.5879H355.012C366.896 -13.5879 376.609 -3.86564 376.609 8.00586V33.3691C376.609 36.4318 377.494 40.0867 378.908 43.5049C380.323 46.9231 382.279 50.1369 384.448 52.3057V52.3047L402.386 70.2422C410.643 78.5004 410.772 91.955 402.773 100.382L402.386 100.779L384.449 118.713C382.282 120.88 380.325 124.088 378.91 127.504C377.495 130.919 376.609 134.574 376.609 137.646V163.013C376.609 174.884 366.897 184.609 355.013 184.609H329.637C326.569 184.609 322.915 185.495 319.499 186.909C316.083 188.324 312.872 190.28 310.703 192.449L292.767 210.383C284.377 218.779 270.625 218.779 262.232 210.383L244.296 192.449C242.127 190.282 238.916 188.325 235.499 186.91C232.082 185.495 228.427 184.609 225.359 184.609H199.999C188.124 184.609 178.402 174.884 178.402 163.013V137.646C178.402 134.585 177.517 130.931 176.102 127.513C174.686 124.095 172.728 120.882 170.56 118.713L152.623 100.779C144.221 92.3834 144.221 78.6348 152.623 70.2422L170.56 52.3057C172.729 50.1366 174.686 46.9231 176.102 43.5049C177.517 40.0868 178.402 36.4318 178.402 33.3691V8.00586C178.403 -3.86547 188.124 -13.5878 199.999 -13.5879H225.358C228.421 -13.5879 232.076 -14.4741 235.494 -15.8896C238.912 -17.3052 242.126 -19.2627 244.295 -21.4297V-21.4307L262.232 -39.3672ZM272.673 8.47461C269.11 8.4748 266.222 11.3628 266.222 14.9258V24.583C266.221 27.7796 263.598 30.3597 260.386 30.9619C244.998 33.8466 233.347 47.3436 233.347 63.5879C233.347 81.9159 248.215 96.7842 266.543 96.7842H288.461C294.308 96.7844 299.041 101.492 299.091 107.331C299.08 107.364 299.073 107.398 299.073 107.434C299.068 113.307 294.316 118.06 288.435 118.061H266.539C262.736 118.06 259.402 116.069 257.521 113.07C256.613 111.622 255.49 110.136 254.152 109.011C252.814 107.884 251.243 107.103 249.451 107.103H239.795C236.252 107.103 233.245 110.015 233.914 113.581C236.428 126.974 246.99 137.536 260.383 140.05C263.595 140.653 266.219 143.233 266.219 146.43V156.087C266.219 159.65 269.107 162.538 272.67 162.538H282.327C285.89 162.538 288.778 159.65 288.778 156.087V146.422C288.778 143.228 291.397 140.649 294.606 140.045C309.968 137.151 321.603 123.692 321.639 107.498C321.645 107.473 321.649 107.446 321.649 107.419C321.647 89.0934 306.779 74.2278 288.457 74.2275H266.539C260.661 74.2275 255.903 69.4699 255.903 63.5918C255.903 57.7108 260.661 52.953 266.538 52.9521C266.547 52.9521 266.556 52.95 266.565 52.9492H288.461C292.264 52.9494 295.597 54.941 297.477 57.9414C298.384 59.3903 299.508 60.8752 300.845 62.001C302.183 63.128 303.753 63.9091 305.545 63.9092H315.202C318.745 63.909 321.752 60.9977 321.083 57.4316C318.569 44.0387 308.008 33.4773 294.617 30.9629C291.405 30.3596 288.782 27.7795 288.781 24.583V14.9258C288.781 11.3628 285.893 8.47473 282.33 8.47461H272.673Z" fill="url(#paint11_linear_2320_5474)" fill-opacity="0.5" stroke="url(#paint12_linear_2320_5474)" stroke-width="0.642093"/>
</g>
<path d="M278.232 -32.3672C286.494 -40.651 299.948 -40.7806 308.368 -32.7559L308.766 -32.3672L326.703 -14.4307C328.871 -12.2632 332.08 -10.3052 335.497 -8.88965C338.914 -7.47413 342.568 -6.58794 345.636 -6.58789H371.012C382.896 -6.58789 392.609 3.13436 392.609 15.0059V40.3691C392.609 43.4318 393.494 47.0867 394.908 50.5049C396.323 53.9231 398.279 57.1369 400.448 59.3057V59.3047L418.386 77.2422C426.643 85.5004 426.772 98.955 418.773 107.382L418.386 107.779L400.449 125.713C398.282 127.88 396.325 131.088 394.91 134.504C393.495 137.919 392.609 141.574 392.609 144.646V170.013C392.609 181.884 382.897 191.609 371.013 191.609H345.637C342.569 191.609 338.915 192.495 335.499 193.909C332.083 195.324 328.872 197.28 326.703 199.449L308.767 217.383C300.377 225.779 286.625 225.779 278.232 217.383L260.296 199.449C258.127 197.282 254.916 195.325 251.499 193.91C248.082 192.495 244.427 191.609 241.359 191.609H215.999C204.124 191.609 194.402 181.884 194.402 170.013V144.646C194.402 141.585 193.517 137.931 192.102 134.513C190.686 131.095 188.728 127.882 186.56 125.713L168.623 107.779C160.221 99.3834 160.221 85.6348 168.623 77.2422L186.56 59.3057C188.729 57.1366 190.686 53.9231 192.102 50.5049C193.517 47.0868 194.402 43.4318 194.402 40.3691V15.0059C194.403 3.13453 204.124 -6.58777 215.999 -6.58789H241.358C244.421 -6.58789 248.076 -7.47413 251.494 -8.88965C254.912 -10.3052 258.126 -12.2627 260.295 -14.4297V-14.4307L278.232 -32.3672ZM288.673 15.4746C285.11 15.4748 282.222 18.3628 282.222 21.9258V31.583C282.221 34.7796 279.598 37.3597 276.386 37.9619C260.998 40.8466 249.347 54.3436 249.347 70.5879C249.347 88.9159 264.215 103.784 282.543 103.784H304.461C310.308 103.784 315.041 108.492 315.091 114.331C315.08 114.364 315.073 114.398 315.073 114.434C315.068 120.307 310.316 125.06 304.435 125.061H282.539C278.736 125.06 275.402 123.069 273.521 120.07C272.613 118.622 271.49 117.136 270.152 116.011C268.814 114.884 267.243 114.103 265.451 114.103H255.795C252.252 114.103 249.245 117.015 249.914 120.581C252.428 133.974 262.99 144.536 276.383 147.05C279.595 147.653 282.219 150.233 282.219 153.43V163.087C282.219 166.65 285.107 169.538 288.67 169.538H298.327C301.89 169.538 304.778 166.65 304.778 163.087V153.422C304.778 150.228 307.397 147.649 310.606 147.045C325.968 144.151 337.603 130.692 337.639 114.498C337.645 114.473 337.649 114.446 337.649 114.419C337.647 96.0934 322.779 81.2278 304.457 81.2275H282.539C276.661 81.2275 271.903 76.4699 271.903 70.5918C271.903 64.7108 276.661 59.953 282.538 59.9521C282.547 59.9521 282.556 59.95 282.565 59.9492H304.461C308.264 59.9494 311.597 61.941 313.477 64.9414C314.384 66.3903 315.508 67.8752 316.845 69.001C318.183 70.128 319.753 70.9091 321.545 70.9092H331.202C334.745 70.909 337.752 67.9977 337.083 64.4316C334.569 51.0387 324.008 40.4773 310.617 37.9629C307.405 37.3596 304.782 34.7795 304.781 31.583V21.9258C304.781 18.3628 301.893 15.4747 298.33 15.4746H288.673Z" fill="url(#paint13_linear_2320_5474)" fill-opacity="0.5" stroke="url(#paint14_linear_2320_5474)" stroke-width="0.642093"/>
<defs>
<filter id="filter1_f_2320_5474" x="-58.6125" y="-110.361" width="703.435" height="695.409" filterUnits="userSpaceOnUse" color-interpolation-filters="sRGB">
<feFlood flood-opacity="0" result="BackgroundImageFix"/>
<feBlend mode="normal" in="SourceGraphic" in2="BackgroundImageFix" result="shape"/>
<feGaussianBlur stdDeviation="11.45" result="effect1_foregroundBlur_2320_5474"/>
</filter>
<filter id="filter2_f_2320_5474" x="-161.862" y="-210.242" width="755.807" height="788.502" filterUnits="userSpaceOnUse" color-interpolation-filters="sRGB">
<feFlood flood-opacity="0" result="BackgroundImageFix"/>
<feBlend mode="normal" in="SourceGraphic" in2="BackgroundImageFix" result="shape"/>
<feGaussianBlur stdDeviation="97.8482" result="effect1_foregroundBlur_2320_5474"/>
</filter>
<filter id="filter3_f_2320_5474" x="104.964" y="54.1267" width="476.663" height="434.392" filterUnits="userSpaceOnUse" color-interpolation-filters="sRGB">
<feFlood flood-opacity="0" result="BackgroundImageFix"/>
<feBlend mode="normal" in="SourceGraphic" in2="BackgroundImageFix" result="shape"/>
<feGaussianBlur stdDeviation="17.1399" result="effect1_foregroundBlur_2320_5474"/>
</filter>
<filter id="filter4_f_2320_5474" x="163.921" y="121.599" width="400.567" height="349.778" filterUnits="userSpaceOnUse" color-interpolation-filters="sRGB">
<feFlood flood-opacity="0" result="BackgroundImageFix"/>
<feBlend mode="normal" in="SourceGraphic" in2="BackgroundImageFix" result="shape"/>
<feGaussianBlur stdDeviation="8.56994" result="effect1_foregroundBlur_2320_5474"/>
</filter>
<filter id="filter5_f_2320_5474" x="46.0055" y="-13.3434" width="552.764" height="518.999" filterUnits="userSpaceOnUse" color-interpolation-filters="sRGB">
<feFlood flood-opacity="0" result="BackgroundImageFix"/>
<feBlend mode="normal" in="SourceGraphic" in2="BackgroundImageFix" result="shape"/>
<feGaussianBlur stdDeviation="25.7098" result="effect1_foregroundBlur_2320_5474"/>
</filter>
<filter id="filter6_f_2320_5474" x="210.821" y="253.116" width="235.423" height="206.012" filterUnits="userSpaceOnUse" color-interpolation-filters="sRGB">
<feFlood flood-opacity="0" result="BackgroundImageFix"/>
<feBlend mode="normal" in="SourceGraphic" in2="BackgroundImageFix" result="shape"/>
<feGaussianBlur stdDeviation="3.91393" result="effect1_foregroundBlur_2320_5474"/>
</filter>
<filter id="filter7_f_2320_5474" x="384.389" y="213.592" width="196.758" height="166.033" filterUnits="userSpaceOnUse" color-interpolation-filters="sRGB">
<feFlood flood-opacity="0" result="BackgroundImageFix"/>
<feBlend mode="normal" in="SourceGraphic" in2="BackgroundImageFix" result="shape"/>
<feGaussianBlur stdDeviation="3.42469" result="effect1_foregroundBlur_2320_5474"/>
</filter>
<filter id="filter8_i_2320_5474" x="209.162" y="194.378" width="295.933" height="267.293" filterUnits="userSpaceOnUse" color-interpolation-filters="sRGB">
<feFlood flood-opacity="0" result="BackgroundImageFix"/>
<feBlend mode="normal" in="SourceGraphic" in2="BackgroundImageFix" result="shape"/>
<feColorMatrix in="SourceAlpha" type="matrix" values="0 0 0 0 0 0 0 0 0 0 0 0 0 0 0 0 0 0 127 0" result="hardAlpha"/>
<feOffset/>
<feGaussianBlur stdDeviation="3.24262"/>
<feComposite in2="hardAlpha" operator="arithmetic" k2="-1" k3="1"/>
<feColorMatrix type="matrix" values="0 0 0 0 1 0 0 0 0 1 0 0 0 0 1 0 0 0 1 0"/>
<feBlend mode="normal" in2="shape" result="effect1_innerShadow_2320_5474"/>
</filter>
<filter id="filter9_i_2320_5474" x="214.586" y="202.322" width="337.791" height="208.117" filterUnits="userSpaceOnUse" color-interpolation-filters="sRGB">
<feFlood flood-opacity="0" result="BackgroundImageFix"/>
<feBlend mode="normal" in="SourceGraphic" in2="BackgroundImageFix" result="shape"/>
<feColorMatrix in="SourceAlpha" type="matrix" values="0 0 0 0 0 0 0 0 0 0 0 0 0 0 0 0 0 0 127 0" result="hardAlpha"/>
<feOffset/>
<feGaussianBlur stdDeviation="3.24262"/>
<feComposite in2="hardAlpha" operator="arithmetic" k2="-1" k3="1"/>
<feColorMatrix type="matrix" values="0 0 0 0 1 0 0 0 0 1 0 0 0 0 1 0 0 0 1 0"/>
<feBlend mode="normal" in2="shape" result="effect1_innerShadow_2320_5474"/>
</filter>
<filter id="filter10_f_2320_5474" x="234.439" y="162.074" width="319.004" height="246.214" filterUnits="userSpaceOnUse" color-interpolation-filters="sRGB">
<feFlood flood-opacity="0" result="BackgroundImageFix"/>
<feBlend mode="normal" in="SourceGraphic" in2="BackgroundImageFix" result="shape"/>
<feGaussianBlur stdDeviation="0.810655" result="effect1_foregroundBlur_2320_5474"/>
</filter>
<filter id="filter11_f_2320_5474" x="243.226" y="159.643" width="265.27" height="308.504" filterUnits="userSpaceOnUse" color-interpolation-filters="sRGB">
<feFlood flood-opacity="0" result="BackgroundImageFix"/>
<feBlend mode="normal" in="SourceGraphic" in2="BackgroundImageFix" result="shape"/>
<feGaussianBlur stdDeviation="3.24262" result="effect1_foregroundBlur_2320_5474"/>
</filter>
<filter id="filter12_f_2320_5474" x="188.006" y="234.965" width="368.679" height="177.989" filterUnits="userSpaceOnUse" color-interpolation-filters="sRGB">
<feFlood flood-opacity="0" result="BackgroundImageFix"/>
<feBlend mode="normal" in="SourceGraphic" in2="BackgroundImageFix" result="shape"/>
<feGaussianBlur stdDeviation="2.43197" result="effect1_foregroundBlur_2320_5474"/>
</filter>
<filter id="filter13_f_2320_5474" x="274.936" y="133.056" width="231.938" height="333.469" filterUnits="userSpaceOnUse" color-interpolation-filters="sRGB">
<feFlood flood-opacity="0" result="BackgroundImageFix"/>
<feBlend mode="normal" in="SourceGraphic" in2="BackgroundImageFix" result="shape"/>
<feGaussianBlur stdDeviation="2.43197" result="effect1_foregroundBlur_2320_5474"/>
</filter>
<filter id="filter14_f_2320_5474" x="240.255" y="191.708" width="259.042" height="217.499" filterUnits="userSpaceOnUse" color-interpolation-filters="sRGB">
<feFlood flood-opacity="0" result="BackgroundImageFix"/>
<feBlend mode="normal" in="SourceGraphic" in2="BackgroundImageFix" result="shape"/>
<feGaussianBlur stdDeviation="3.24262" result="effect1_foregroundBlur_2320_5474"/>
</filter>
<filter id="filter15_f_2320_5474" x="232.464" y="185.932" width="258.938" height="217.585" filterUnits="userSpaceOnUse" color-interpolation-filters="sRGB">
<feFlood flood-opacity="0" result="BackgroundImageFix"/>
<feBlend mode="normal" in="SourceGraphic" in2="BackgroundImageFix" result="shape"/>
<feGaussianBlur stdDeviation="3.24262" result="effect1_foregroundBlur_2320_5474"/>
</filter>
<filter id="filter16_f_2320_5474" x="113.291" y="-66.7087" width="296.416" height="296.418" filterUnits="userSpaceOnUse" color-interpolation-filters="sRGB">
<feFlood flood-opacity="0" result="BackgroundImageFix"/>
<feBlend mode="normal" in="SourceGraphic" in2="BackgroundImageFix" result="shape"/>
<feGaussianBlur stdDeviation="2.05" result="effect1_foregroundBlur_2320_5474"/>
</filter>
<filter id="filter18_f_2320_5474" x="129.291" y="-62.7087" width="296.416" height="296.418" filterUnits="userSpaceOnUse" color-interpolation-filters="sRGB">
<feFlood flood-opacity="0" result="BackgroundImageFix"/>
<feBlend mode="normal" in="SourceGraphic" in2="BackgroundImageFix" result="shape"/>
<feGaussianBlur stdDeviation="2.05" result="effect1_foregroundBlur_2320_5474"/>
</filter>
<radialGradient id="paint0_radial_2320_5474" cx="0" cy="0" r="1" gradientUnits="userSpaceOnUse" gradientTransform="translate(216.041 169.94) rotate(90) scale(193.322 649.744)">
<stop stop-color="#A4FFFF"/>
<stop offset="1" stop-color="#A4FFFF" stop-opacity="0"/>
</radialGradient>
<linearGradient id="paint1_linear_2320_5474" x1="535.578" y1="432.348" x2="216.254" y2="167.026" gradientUnits="userSpaceOnUse">
<stop stop-color="#A4FFFF"/>
<stop offset="1" stop-color="#A4FFFF" stop-opacity="0"/>
</linearGradient>
<linearGradient id="paint2_linear_2320_5474" x1="535.579" y1="432.347" x2="216.256" y2="167.025" gradientUnits="userSpaceOnUse">
<stop stop-color="#85E9FF"/>
<stop offset="1" stop-color="#85E9FF" stop-opacity="0"/>
</linearGradient>
<linearGradient id="paint3_linear_2320_5474" x1="535.581" y1="432.345" x2="216.257" y2="167.023" gradientUnits="userSpaceOnUse">
<stop stop-color="#A4FFFF"/>
<stop offset="1" stop-color="#A4FFFF" stop-opacity="0"/>
</linearGradient>
<linearGradient id="paint4_linear_2320_5474" x1="467.496" y1="482.024" x2="317.256" y2="357.192" gradientUnits="userSpaceOnUse">
<stop stop-color="#A4EFFF"/>
<stop offset="1" stop-color="#A4EFFF" stop-opacity="0"/>
</linearGradient>
<linearGradient id="paint5_linear_2320_5474" x1="479.938" y1="291.989" x2="329.698" y2="167.157" gradientUnits="userSpaceOnUse">
<stop stop-color="#A4EFFF"/>
<stop offset="1" stop-color="#A4EFFF" stop-opacity="0"/>
</linearGradient>
<linearGradient id="paint6_linear_2320_5474" x1="664.309" y1="352.36" x2="664.309" y2="712.29" gradientUnits="userSpaceOnUse">
<stop stop-color="#D9D9D9"/>
<stop offset="1" stop-color="white" stop-opacity="0"/>
</linearGradient>
<linearGradient id="paint7_linear_2320_5474" x1="534.436" y1="432.366" x2="227.089" y2="176.996" gradientUnits="userSpaceOnUse">
<stop stop-color="white" stop-opacity="0"/>
<stop offset="0.5" stop-color="white"/>
<stop offset="1" stop-color="white" stop-opacity="0"/>
</linearGradient>
<linearGradient id="paint8_linear_2320_5474" x1="675.467" y1="337.807" x2="675.467" y2="649.457" gradientUnits="userSpaceOnUse">
<stop/>
<stop offset="1" stop-opacity="0"/>
</linearGradient>
<linearGradient id="paint9_linear_2320_5474" x1="261.499" y1="-50" x2="261.499" y2="213.001" gradientUnits="userSpaceOnUse">
<stop stop-color="#A4FFFF"/>
<stop offset="1" stop-color="#A4FFFF" stop-opacity="0.2"/>
</linearGradient>
<linearGradient id="paint10_linear_2320_5474" x1="130" y1="-50" x2="459.569" y2="70.0844" gradientUnits="userSpaceOnUse">
<stop stop-color="white"/>
<stop offset="0.253963" stop-color="white" stop-opacity="0"/>
</linearGradient>
<linearGradient id="paint11_linear_2320_5474" x1="277.499" y1="-46" x2="277.499" y2="217.001" gradientUnits="userSpaceOnUse">
<stop stop-color="#A4FFFF"/>
<stop offset="1" stop-color="#A4FFFF" stop-opacity="0.2"/>
</linearGradient>
<linearGradient id="paint12_linear_2320_5474" x1="146" y1="-46" x2="475.569" y2="74.0844" gradientUnits="userSpaceOnUse">
<stop stop-color="white"/>
<stop offset="0.253963" stop-color="white" stop-opacity="0"/>
</linearGradient>
<linearGradient id="paint13_linear_2320_5474" x1="293.499" y1="-39" x2="293.499" y2="224.001" gradientUnits="userSpaceOnUse">
<stop stop-color="#A4FFFF"/>
<stop offset="1" stop-color="#A4FFFF" stop-opacity="0.2"/>
</linearGradient>
<linearGradient id="paint14_linear_2320_5474" x1="162" y1="-39" x2="491.569" y2="81.0844" gradientUnits="userSpaceOnUse">
<stop stop-color="white"/>
<stop offset="0.253963" stop-color="white" stop-opacity="0"/>
</linearGradient>
<clipPath id="clip0_2320_5474">
<rect width="433.296" height="495" fill="white" transform="translate(621.923 228.881) rotate(129.723)"/>
</clipPath>
<clipPath id="clip1_2320_5474">
<rect width="164.407" height="278.709" fill="white" transform="translate(546.702 337.317) rotate(129.723)"/>
</clipPath>
</defs>
</svg>
