<svg width="40" height="39" viewBox="0 0 40 39" fill="none" xmlns="http://www.w3.org/2000/svg">
<path d="M19.8047 0C8.88488 0 0 8.74819 0 19.5C0 30.2518 8.88488 39 19.8047 39C30.7245 39 39.6094 30.2518 39.6094 19.5C39.6094 8.74819 30.7245 0 19.8047 0ZM19.8047 36.5625C10.2489 36.5625 2.47559 28.9063 2.47559 19.5C2.47559 10.0913 10.2489 2.4375 19.8047 2.4375C29.358 2.4375 37.1338 10.0913 37.1338 19.5C37.1338 28.9063 29.358 36.5625 19.8047 36.5625Z" fill="#565656"/>
<path d="M19.8048 4.875C18.765 4.875 17.75 4.98225 16.7697 5.18212C18.5719 7.69762 20.2083 10.3155 21.6491 13.0284C24.3747 11.778 26.9394 10.1644 29.2813 8.23875C26.7092 6.13763 23.4068 4.875 19.8048 4.875Z" fill="#565656"/>
<path d="M31.046 9.95996C28.4987 12.0733 25.6963 13.8258 22.7206 15.1957C23.3717 16.5315 23.9758 17.8843 24.5352 19.259C27.8228 18.5936 31.2441 18.5326 34.6356 19.086C34.5366 15.6003 33.2047 12.4218 31.046 9.95996Z" fill="#565656"/>
<path d="M14.2833 5.93018C9.82474 7.69005 6.44309 11.5121 5.34393 16.2042C10.1515 16.4066 14.9096 15.6168 19.3384 13.952C17.8506 11.1708 16.1647 8.48955 14.2833 5.93018Z" fill="#565656"/>
<path d="M20.4483 16.1582C16.1606 17.8035 11.5808 18.7005 6.92421 18.7005C6.28304 18.7005 5.63938 18.6615 4.99573 18.6274C4.9784 18.9175 4.95117 19.2051 4.95117 19.5C4.95117 23.0905 6.27066 26.3762 8.45165 28.921C12.019 24.5603 16.8142 21.4354 22.1218 19.8656C21.6044 18.6128 21.045 17.3794 20.4483 16.1582Z" fill="#565656"/>
<path d="M25.4446 21.5668C26.6255 24.8087 27.5514 28.1407 28.2297 31.5386C31.5767 29.2644 33.9136 25.674 34.5003 21.5253C31.4653 20.9964 28.398 21.0208 25.4446 21.5668Z" fill="#565656"/>
<path d="M23.014 22.1323C18.0232 23.568 13.5152 26.5174 10.2103 30.6538C12.7997 32.8159 16.1442 34.1248 19.8056 34.1248C22.004 34.1248 24.0859 33.6422 25.9624 32.7964C25.2816 29.1548 24.2914 25.5911 23.014 22.1323Z" fill="#565656"/>
</svg>
