<svg width="25" height="25" viewBox="0 0 25 25" fill="none" xmlns="http://www.w3.org/2000/svg">
<path d="M12.4348 0C5.5881 0 0 5.58811 0 12.4348C0 19.2815 5.5881 24.8696 12.4348 24.8696C19.2815 24.8696 24.8696 19.2815 24.8696 12.4348C24.8696 5.58811 19.2815 0 12.4348 0ZM3.47368 12.4348C3.47368 9.86728 4.58123 7.50115 6.34325 5.89017C7.04805 5.2357 8.25629 5.43707 8.75973 6.29291L11.881 11.6796C12.1831 12.1831 12.1831 12.7872 11.881 13.2906L8.75973 18.6773C8.25629 19.5835 7.04806 19.7345 6.29291 19.0297C4.58124 17.3181 3.47368 15.0023 3.47368 12.4348ZM16.1098 18.5767L12.9886 13.1899C12.6865 12.6865 12.6865 12.0824 12.9886 11.5789L16.1098 6.19221C16.6133 5.33638 17.7712 5.13501 18.5263 5.78947C20.2883 7.40046 21.3959 9.76659 21.3959 12.3341C21.3959 14.9016 20.2883 17.2677 18.5263 18.8787C17.7712 19.6842 16.6133 19.4828 16.1098 18.5767Z" fill="#565656"/>
</svg>
