<svg width="28" height="26" viewBox="0 0 28 26" fill="none" xmlns="http://www.w3.org/2000/svg">
<path d="M24.2233 0H0C1.75814 0.396947 2.99534 1.98473 2.99534 3.77099V26C5.40465 23.5522 6.70697 20.3104 6.70697 16.8702V4.43257C6.70697 4.10178 6.96743 3.77099 7.35813 3.77099C7.68371 3.77099 8.00929 4.03562 8.00929 4.43257V20.972C10.4186 18.5242 11.7209 15.2824 11.7209 11.8422V4.43257C11.7209 4.10178 11.9814 3.77099 12.3721 3.77099C12.6977 3.77099 13.0233 4.03562 13.0233 4.43257V15.944L16.2791 12.6361C16.4093 12.5038 16.4744 12.3715 16.5395 12.2392V12.173C16.6698 11.9746 16.6698 11.7761 16.7349 11.5114C17.0605 7.2112 20.5767 3.77099 24.9395 3.77099H28L24.2233 0Z" fill="#565656"/>
</svg>
