<svg width="40" height="39" viewBox="0 0 40 39" fill="none" xmlns="http://www.w3.org/2000/svg">
<path d="M27.2314 0H12.3779C5.54284 0 0 5.45756 0 12.1875V26.8125C0 33.5424 5.54284 39 12.3779 39H27.2314C34.0665 39 39.6094 33.5424 39.6094 26.8125V12.1875C39.6094 5.45756 34.0665 0 27.2314 0ZM35.896 26.8125C35.896 31.5169 32.0093 35.3438 27.2314 35.3438H12.3779C7.60005 35.3438 3.71338 31.5169 3.71338 26.8125V12.1875C3.71338 7.48313 7.60005 3.65625 12.3779 3.65625H27.2314C32.0093 3.65625 35.896 7.48313 35.896 12.1875V26.8125Z" fill="#565656"/>
<path d="M19.8047 9.75C14.3361 9.75 9.90234 14.1156 9.90234 19.5C9.90234 24.8844 14.3361 29.25 19.8047 29.25C25.2733 29.25 29.707 24.8844 29.707 19.5C29.707 14.1156 25.2733 9.75 19.8047 9.75ZM19.8047 25.5938C16.3933 25.5938 13.6157 22.8589 13.6157 19.5C13.6157 16.1387 16.3933 13.4062 19.8047 13.4062C23.216 13.4062 25.9937 16.1387 25.9937 19.5C25.9937 22.8589 23.216 25.5938 19.8047 25.5938Z" fill="#565656"/>
<path d="M30.4505 10.3181C31.1792 10.3181 31.77 9.73644 31.77 9.01891C31.77 8.30139 31.1792 7.71973 30.4505 7.71973C29.7217 7.71973 29.131 8.30139 29.131 9.01891C29.131 9.73644 29.7217 10.3181 30.4505 10.3181Z" fill="#565656"/>
</svg>
