<svg width="40" height="39" viewBox="0 0 40 39" fill="none" xmlns="http://www.w3.org/2000/svg">
<path d="M8.85765 12.1875H0V39H8.85765V12.1875Z" fill="#565656"/>
<path d="M32.9857 12.5019C32.8916 12.4727 32.8025 12.441 32.7035 12.4142C32.5846 12.3874 32.4658 12.3654 32.3445 12.3459C31.8741 12.2533 31.3592 12.1875 30.7552 12.1875C25.5911 12.1875 22.3159 15.8852 21.2366 17.3136V12.1875H12.3789V39H21.2366V24.375C21.2366 24.375 27.9305 15.1954 30.7552 21.9375C30.7552 27.9557 30.7552 39 30.7552 39H39.6104V20.9064C39.6104 16.8553 36.7907 13.4794 32.9857 12.5019Z" fill="#565656"/>
<path d="M4.33228 8.53125C6.72493 8.53125 8.66455 6.62146 8.66455 4.26562C8.66455 1.90979 6.72493 0 4.33228 0C1.93963 0 0 1.90979 0 4.26562C0 6.62146 1.93963 8.53125 4.33228 8.53125Z" fill="#565656"/>
</svg>
