<svg width="39" height="39" viewBox="0 0 39 39" fill="none" xmlns="http://www.w3.org/2000/svg">
<path d="M19.5049 0H19.4951C8.74331 0 0 8.74575 0 19.5C0 23.7656 1.37475 27.7192 3.71231 30.9294L1.28212 38.1737L8.77744 35.7776C11.8609 37.8203 15.5391 39 19.5049 39C30.2567 39 39 30.2518 39 19.5C39 8.74819 30.2567 0 19.5049 0ZM30.8514 27.5364C30.381 28.8649 28.5139 29.9666 27.0246 30.2884C26.0057 30.5053 24.6748 30.6784 20.1947 28.821C14.4641 26.4469 10.7738 20.6237 10.4861 20.2459C10.2107 19.8681 8.1705 17.1624 8.1705 14.3642C8.1705 11.5659 9.59156 10.2034 10.1644 9.61837C10.6348 9.13819 11.4124 8.91881 12.1582 8.91881C12.3996 8.91881 12.6165 8.931 12.8115 8.94075C13.3843 8.96513 13.6719 8.99925 14.0497 9.90356C14.5202 11.037 15.6658 13.8352 15.8023 14.1229C15.9412 14.4105 16.0802 14.8005 15.8852 15.1783C15.7024 15.5683 15.5415 15.7414 15.2539 16.0729C14.9662 16.4044 14.6932 16.6579 14.4056 17.0138C14.1424 17.3233 13.845 17.6548 14.1765 18.2276C14.508 18.7882 15.6536 20.6578 17.3404 22.1593C19.5171 24.0971 21.2818 24.7162 21.9131 24.9795C22.3836 25.1745 22.9442 25.1282 23.2879 24.7626C23.7242 24.2921 24.2629 23.5121 24.8113 22.7443C25.2013 22.1934 25.6937 22.1252 26.2104 22.3202C26.7369 22.503 29.523 23.8802 30.0958 24.1654C30.6686 24.453 31.0464 24.5895 31.1854 24.8308C31.3219 25.0721 31.3219 26.2056 30.8514 27.5364Z" fill="#565656"/>
</svg>
